%TF.GenerationSoftware,KiCad,Pcbnew,8.0.4-8.0.4-0~ubuntu22.04.1*%
%TF.CreationDate,2024-10-21T19:34:48-04:00*%
%TF.ProjectId,macropad,6d616372-6f70-4616-942e-6b696361645f,rev?*%
%TF.SameCoordinates,Original*%
%TF.FileFunction,Soldermask,Bot*%
%TF.FilePolarity,Negative*%
%FSLAX46Y46*%
G04 Gerber Fmt 4.6, Leading zero omitted, Abs format (unit mm)*
G04 Created by KiCad (PCBNEW 8.0.4-8.0.4-0~ubuntu22.04.1) date 2024-10-21 19:34:48*
%MOMM*%
%LPD*%
G01*
G04 APERTURE LIST*
%ADD10R,1.500000X1.500000*%
%ADD11O,1.500000X1.500000*%
%ADD12C,1.700000*%
%ADD13C,4.000000*%
%ADD14C,2.200000*%
%ADD15C,3.200000*%
%ADD16R,1.700000X1.700000*%
%ADD17R,0.850000X0.850000*%
%ADD18O,0.850000X0.850000*%
G04 APERTURE END LIST*
D10*
%TO.C,D2*%
X104140000Y-105815000D03*
D11*
X104140000Y-98195000D03*
%TD*%
D12*
%TO.C,SW3*%
X129500000Y-113500000D03*
D13*
X134580000Y-113500000D03*
D12*
X139660000Y-113500000D03*
D14*
X137120000Y-108420000D03*
X130770000Y-110960000D03*
%TD*%
D10*
%TO.C,D5*%
X113410000Y-105815000D03*
D11*
X113410000Y-98195000D03*
%TD*%
D12*
%TO.C,SW7*%
X167500000Y-113500000D03*
D13*
X172580000Y-113500000D03*
D12*
X177660000Y-113500000D03*
D14*
X175120000Y-108420000D03*
X168770000Y-110960000D03*
%TD*%
D10*
%TO.C,D1*%
X101050000Y-105815000D03*
D11*
X101050000Y-98195000D03*
%TD*%
D10*
%TO.C,D6*%
X110320000Y-105815000D03*
D11*
X110320000Y-98195000D03*
%TD*%
D15*
%TO.C,REF\u002A\u002A*%
X121500000Y-97000000D03*
%TD*%
D12*
%TO.C,SW4*%
X148580000Y-94500000D03*
D13*
X153660000Y-94500000D03*
D12*
X158740000Y-94500000D03*
D14*
X156200000Y-89420000D03*
X149850000Y-91960000D03*
%TD*%
D12*
%TO.C,SW6*%
X167500000Y-94500000D03*
D13*
X172580000Y-94500000D03*
D12*
X177660000Y-94500000D03*
D14*
X175120000Y-89420000D03*
X168770000Y-91960000D03*
%TD*%
D12*
%TO.C,SW5*%
X148500000Y-113500000D03*
D13*
X153580000Y-113500000D03*
D12*
X158660000Y-113500000D03*
D14*
X156120000Y-108420000D03*
X149770000Y-110960000D03*
%TD*%
D10*
%TO.C,D3*%
X107230000Y-105815000D03*
D11*
X107230000Y-98195000D03*
%TD*%
D10*
%TO.C,D4*%
X116500000Y-105815000D03*
D11*
X116500000Y-98195000D03*
%TD*%
D12*
%TO.C,SW2*%
X129500000Y-94500000D03*
D13*
X134580000Y-94500000D03*
D12*
X139660000Y-94500000D03*
D14*
X137120000Y-89420000D03*
X130770000Y-91960000D03*
%TD*%
D16*
%TO.C,U1*%
X101500000Y-72260000D03*
D12*
X101500000Y-74800000D03*
X101500000Y-77340000D03*
X101500000Y-79880000D03*
X101500000Y-82420000D03*
X101500000Y-84960000D03*
X101500000Y-87500000D03*
X116750000Y-87500000D03*
X116750000Y-84960000D03*
X116750000Y-82420000D03*
X116750000Y-79880000D03*
X116750000Y-77340000D03*
X116750000Y-74800000D03*
X116750000Y-72260000D03*
%TD*%
D17*
%TO.C,J1*%
X143500000Y-76000000D03*
D18*
X143500000Y-77000000D03*
X143500000Y-78000000D03*
X143500000Y-79000000D03*
%TD*%
M02*
