%TF.GenerationSoftware,KiCad,Pcbnew,8.0.4-8.0.4-0~ubuntu22.04.1*%
%TF.CreationDate,2024-10-21T19:34:47-04:00*%
%TF.ProjectId,macropad,6d616372-6f70-4616-942e-6b696361645f,rev?*%
%TF.SameCoordinates,Original*%
%TF.FileFunction,Copper,L1,Top*%
%TF.FilePolarity,Positive*%
%FSLAX46Y46*%
G04 Gerber Fmt 4.6, Leading zero omitted, Abs format (unit mm)*
G04 Created by KiCad (PCBNEW 8.0.4-8.0.4-0~ubuntu22.04.1) date 2024-10-21 19:34:47*
%MOMM*%
%LPD*%
G01*
G04 APERTURE LIST*
%TA.AperFunction,ComponentPad*%
%ADD10R,1.500000X1.500000*%
%TD*%
%TA.AperFunction,ComponentPad*%
%ADD11O,1.500000X1.500000*%
%TD*%
%TA.AperFunction,ComponentPad*%
%ADD12C,2.200000*%
%TD*%
%TA.AperFunction,SMDPad,CuDef*%
%ADD13R,1.500000X0.900000*%
%TD*%
%TA.AperFunction,ComponentPad*%
%ADD14R,1.700000X1.700000*%
%TD*%
%TA.AperFunction,ComponentPad*%
%ADD15C,1.700000*%
%TD*%
%TA.AperFunction,ComponentPad*%
%ADD16R,0.850000X0.850000*%
%TD*%
%TA.AperFunction,ComponentPad*%
%ADD17O,0.850000X0.850000*%
%TD*%
%TA.AperFunction,ViaPad*%
%ADD18C,0.600000*%
%TD*%
%TA.AperFunction,Conductor*%
%ADD19C,0.200000*%
%TD*%
G04 APERTURE END LIST*
D10*
%TO.P,D2,1,K*%
%TO.N,Row1*%
X104140000Y-105815000D03*
D11*
%TO.P,D2,2,A*%
%TO.N,Net-(D2-A)*%
X104140000Y-98195000D03*
%TD*%
D12*
%TO.P,SW3,1,1*%
%TO.N,Col1*%
X137120000Y-108420000D03*
%TO.P,SW3,2,2*%
%TO.N,Net-(D4-A)*%
X130770000Y-110960000D03*
%TD*%
D10*
%TO.P,D5,1,K*%
%TO.N,Row2*%
X113410000Y-105815000D03*
D11*
%TO.P,D5,2,A*%
%TO.N,Net-(D5-A)*%
X113410000Y-98195000D03*
%TD*%
D12*
%TO.P,SW7,1,1*%
%TO.N,Col3*%
X175120000Y-108420000D03*
%TO.P,SW7,2,2*%
%TO.N,Net-(D6-A)*%
X168770000Y-110960000D03*
%TD*%
D10*
%TO.P,D1,1,K*%
%TO.N,Row1*%
X101050000Y-105815000D03*
D11*
%TO.P,D1,2,A*%
%TO.N,Net-(D1-A)*%
X101050000Y-98195000D03*
%TD*%
D13*
%TO.P,D7,1,DOUT*%
%TO.N,unconnected-(D7-DOUT-Pad1)*%
X111000000Y-119000000D03*
%TO.P,D7,2,GND*%
%TO.N,GND*%
X111000000Y-115700000D03*
%TO.P,D7,3,VDD*%
%TO.N,VCC*%
X106100000Y-115700000D03*
%TO.P,D7,4,DIN*%
%TO.N,NEOPIXEL*%
X106100000Y-119000000D03*
%TD*%
D10*
%TO.P,D6,1,K*%
%TO.N,Row2*%
X110320000Y-105815000D03*
D11*
%TO.P,D6,2,A*%
%TO.N,Net-(D6-A)*%
X110320000Y-98195000D03*
%TD*%
D12*
%TO.P,SW4,1,1*%
%TO.N,Col2*%
X156200000Y-89420000D03*
%TO.P,SW4,2,2*%
%TO.N,Net-(D2-A)*%
X149850000Y-91960000D03*
%TD*%
%TO.P,SW6,1,1*%
%TO.N,Col3*%
X175120000Y-89420000D03*
%TO.P,SW6,2,2*%
%TO.N,Net-(D3-A)*%
X168770000Y-91960000D03*
%TD*%
%TO.P,SW5,1,1*%
%TO.N,Col2*%
X156120000Y-108420000D03*
%TO.P,SW5,2,2*%
%TO.N,Net-(D5-A)*%
X149770000Y-110960000D03*
%TD*%
D10*
%TO.P,D3,1,K*%
%TO.N,Row1*%
X107230000Y-105815000D03*
D11*
%TO.P,D3,2,A*%
%TO.N,Net-(D3-A)*%
X107230000Y-98195000D03*
%TD*%
D10*
%TO.P,D4,1,K*%
%TO.N,Row2*%
X116500000Y-105815000D03*
D11*
%TO.P,D4,2,A*%
%TO.N,Net-(D4-A)*%
X116500000Y-98195000D03*
%TD*%
D12*
%TO.P,SW2,1,1*%
%TO.N,Col1*%
X137120000Y-89420000D03*
%TO.P,SW2,2,2*%
%TO.N,Net-(D1-A)*%
X130770000Y-91960000D03*
%TD*%
D14*
%TO.P,U1,1,PA02_A0_D0*%
%TO.N,Col1*%
X101500000Y-72260000D03*
D15*
%TO.P,U1,2,PA4_A1_D1*%
%TO.N,Col2*%
X101500000Y-74800000D03*
%TO.P,U1,3,PA10_A2_D2*%
%TO.N,Col3*%
X101500000Y-77340000D03*
%TO.P,U1,4,PA11_A3_D3*%
%TO.N,Row1*%
X101500000Y-79880000D03*
%TO.P,U1,5,PA8_A4_D4_SDA*%
%TO.N,SDA*%
X101500000Y-82420000D03*
%TO.P,U1,6,PA9_A5_D5_SCL*%
%TO.N,SCL*%
X101500000Y-84960000D03*
%TO.P,U1,7,PB08_A6_D6_TX*%
%TO.N,unconnected-(U1-PB08_A6_D6_TX-Pad7)*%
X101500000Y-87500000D03*
%TO.P,U1,8,PB09_A7_D7_RX*%
%TO.N,unconnected-(U1-PB09_A7_D7_RX-Pad8)*%
X116750000Y-87500000D03*
%TO.P,U1,9,PA7_A8_D8_SCK*%
%TO.N,unconnected-(U1-PA7_A8_D8_SCK-Pad9)*%
X116750000Y-84960000D03*
%TO.P,U1,10,PA5_A9_D9_MISO*%
%TO.N,Row2*%
X116750000Y-82420000D03*
%TO.P,U1,11,PA6_A10_D10_MOSI*%
%TO.N,NEOPIXEL*%
X116750000Y-79880000D03*
%TO.P,U1,12,3V3*%
%TO.N,unconnected-(U1-3V3-Pad12)*%
X116750000Y-77340000D03*
%TO.P,U1,13,GND*%
%TO.N,GND*%
X116750000Y-74800000D03*
%TO.P,U1,14,5V*%
%TO.N,VCC*%
X116750000Y-72260000D03*
%TD*%
D16*
%TO.P,J1,1,Pin_1*%
%TO.N,SDA*%
X143500000Y-76000000D03*
D17*
%TO.P,J1,2,Pin_2*%
%TO.N,SCL*%
X143500000Y-77000000D03*
%TO.P,J1,3,Pin_3*%
%TO.N,VCC*%
X143500000Y-78000000D03*
%TO.P,J1,4,Pin_4*%
%TO.N,GND*%
X143500000Y-79000000D03*
%TD*%
D18*
%TO.N,NEOPIXEL*%
X106000000Y-121500000D03*
%TO.N,Row1*%
X107000000Y-112500000D03*
X106000000Y-112500000D03*
X108000000Y-112500000D03*
%TO.N,Row2*%
X109500000Y-112500000D03*
X111500000Y-112500000D03*
X110500000Y-112500000D03*
%TD*%
D19*
%TO.N,GND*%
X142125686Y-71110000D02*
X116273654Y-71110000D01*
X111000000Y-115700000D02*
X110250000Y-116450000D01*
X105050000Y-116450000D02*
X99600000Y-111000000D01*
X110250000Y-116450000D02*
X105050000Y-116450000D01*
X99600000Y-111000000D02*
X99600000Y-70900000D01*
X116273654Y-71110000D02*
X115600000Y-71783654D01*
X115600000Y-71783654D02*
X115600000Y-73650000D01*
X115600000Y-73650000D02*
X116750000Y-74800000D01*
X143666726Y-79000000D02*
X143500000Y-79000000D01*
X112660000Y-70710000D02*
X115600000Y-73650000D01*
X144625000Y-78041726D02*
X143666726Y-79000000D01*
X144625000Y-73609314D02*
X142125686Y-71110000D01*
X144625000Y-73609314D02*
X144625000Y-78041726D01*
X99600000Y-70900000D02*
X99790000Y-70710000D01*
X99790000Y-70710000D02*
X112660000Y-70710000D01*
%TO.N,Net-(D1-A)*%
X129810000Y-91000000D02*
X130770000Y-91960000D01*
X107500000Y-95368628D02*
X107500000Y-92000000D01*
X107368628Y-95500000D02*
X107500000Y-95368628D01*
X108500000Y-91000000D02*
X129810000Y-91000000D01*
X103745000Y-95500000D02*
X107368628Y-95500000D01*
X101050000Y-98195000D02*
X103745000Y-95500000D01*
X107500000Y-92000000D02*
X108500000Y-91000000D01*
%TO.N,Col1*%
X102650000Y-73410000D02*
X101500000Y-72260000D01*
X102650000Y-75026346D02*
X102650000Y-73410000D01*
X137120000Y-89420000D02*
X117043654Y-89420000D01*
X117043654Y-89420000D02*
X102650000Y-75026346D01*
%TO.N,Net-(D2-A)*%
X107967157Y-95467157D02*
X107967157Y-92098529D01*
X104140000Y-98195000D02*
X104140000Y-96360000D01*
X104140000Y-96360000D02*
X104500000Y-96000000D01*
X107967157Y-92098529D02*
X108665686Y-91400000D01*
X127900000Y-91400000D02*
X128000000Y-91500000D01*
X107434314Y-96000000D02*
X107967157Y-95467157D01*
X128000000Y-96000000D02*
X128850000Y-96850000D01*
X108665686Y-91400000D02*
X127900000Y-91400000D01*
X104500000Y-96000000D02*
X107434314Y-96000000D01*
X128000000Y-91500000D02*
X128000000Y-96000000D01*
X149040000Y-91960000D02*
X149850000Y-91960000D01*
X128850000Y-96850000D02*
X144150000Y-96850000D01*
X144150000Y-96850000D02*
X149040000Y-91960000D01*
%TO.N,Net-(D3-A)*%
X128684314Y-97250000D02*
X166447056Y-97250000D01*
X107230000Y-96770000D02*
X108500000Y-95500000D01*
X109000000Y-91800000D02*
X127300000Y-91800000D01*
X108500000Y-92300000D02*
X109000000Y-91800000D01*
X127300000Y-91800000D02*
X127500000Y-92000000D01*
X108500000Y-95500000D02*
X108500000Y-92300000D01*
X107230000Y-98195000D02*
X107230000Y-96770000D01*
X166447056Y-97250000D02*
X168770000Y-94927056D01*
X168770000Y-94927056D02*
X168770000Y-91960000D01*
X127500000Y-92000000D02*
X127500000Y-96065686D01*
X127500000Y-96065686D02*
X128684314Y-97250000D01*
%TO.N,Net-(D4-A)*%
X110131372Y-95500000D02*
X110000000Y-95368628D01*
X130770000Y-101270000D02*
X130770000Y-110960000D01*
X110000000Y-93065686D02*
X110065686Y-93000000D01*
X116500000Y-98195000D02*
X113805000Y-95500000D01*
X110000000Y-95368628D02*
X110000000Y-93065686D01*
X126300000Y-96800000D02*
X130770000Y-101270000D01*
X126300000Y-93300000D02*
X126300000Y-96800000D01*
X110065686Y-93000000D02*
X126000000Y-93000000D01*
X113805000Y-95500000D02*
X110131372Y-95500000D01*
X126000000Y-93000000D02*
X126300000Y-93300000D01*
%TO.N,Net-(D5-A)*%
X113410000Y-98195000D02*
X113410000Y-96475686D01*
X126700000Y-96397058D02*
X128352942Y-98050000D01*
X112934314Y-96000000D02*
X110065686Y-96000000D01*
X113410000Y-96475686D02*
X112934314Y-96000000D01*
X149770000Y-103820000D02*
X149770000Y-110960000D01*
X144000000Y-98050000D02*
X149770000Y-103820000D01*
X110065686Y-96000000D02*
X109532843Y-95467157D01*
X109900000Y-92600000D02*
X126500000Y-92600000D01*
X126700000Y-92800000D02*
X126700000Y-96397058D01*
X109532843Y-92967157D02*
X109900000Y-92600000D01*
X126500000Y-92600000D02*
X126700000Y-92800000D01*
X109532843Y-95467157D02*
X109532843Y-92967157D01*
X128352942Y-98050000D02*
X144000000Y-98050000D01*
%TO.N,Net-(D6-A)*%
X110270000Y-98195000D02*
X110270000Y-96770000D01*
X155460000Y-97650000D02*
X168770000Y-110960000D01*
X109000000Y-92500000D02*
X109300000Y-92200000D01*
X128518628Y-97650000D02*
X155460000Y-97650000D01*
X109300000Y-92200000D02*
X126700000Y-92200000D01*
X109000000Y-95500000D02*
X109000000Y-92500000D01*
X127100000Y-96231372D02*
X128518628Y-97650000D01*
X126700000Y-92200000D02*
X127100000Y-92600000D01*
X127100000Y-92600000D02*
X127100000Y-96231372D01*
X110270000Y-96770000D02*
X109000000Y-95500000D01*
%TO.N,VCC*%
X100350000Y-71110000D02*
X111433654Y-71110000D01*
X144101040Y-78000000D02*
X143500000Y-78000000D01*
X117226346Y-75950000D02*
X117900000Y-75276346D01*
X100000000Y-109600000D02*
X100000000Y-71460000D01*
X116273654Y-75950000D02*
X117226346Y-75950000D01*
X144225000Y-73775000D02*
X144225000Y-77876040D01*
X142710000Y-72260000D02*
X116750000Y-72260000D01*
X117900000Y-73410000D02*
X116750000Y-72260000D01*
X117900000Y-75276346D02*
X117900000Y-73410000D01*
X144225000Y-73775000D02*
X142710000Y-72260000D01*
X100000000Y-71460000D02*
X100350000Y-71110000D01*
X144225000Y-77876040D02*
X144101040Y-78000000D01*
X106100000Y-115700000D02*
X100000000Y-109600000D01*
X111433654Y-71110000D02*
X116273654Y-75950000D01*
%TO.N,NEOPIXEL*%
X106100000Y-121400000D02*
X106000000Y-121500000D01*
X106100000Y-119000000D02*
X106100000Y-121400000D01*
%TO.N,SDA*%
X138520000Y-89999899D02*
X137699899Y-90820000D01*
X141375000Y-76000000D02*
X143500000Y-76000000D01*
X138520000Y-78855000D02*
X138520000Y-89999899D01*
X109079899Y-89999899D02*
X101500000Y-82420000D01*
X136540101Y-90820000D02*
X135720000Y-89999899D01*
X138520000Y-78855000D02*
X141375000Y-76000000D01*
X135720000Y-89999899D02*
X109079899Y-89999899D01*
X137699899Y-90820000D02*
X136540101Y-90820000D01*
%TO.N,SCL*%
X139042793Y-79356167D02*
X141398960Y-77000000D01*
X132349596Y-90399899D02*
X106939899Y-90399899D01*
X139042793Y-79356167D02*
X139042793Y-90042793D01*
X139042793Y-90042793D02*
X137705484Y-91380101D01*
X106939899Y-90399899D02*
X101500000Y-84960000D01*
X141398960Y-77000000D02*
X143500000Y-77000000D01*
X133329798Y-91380101D02*
X132349596Y-90399899D01*
X137705484Y-91380101D02*
X133329798Y-91380101D01*
%TO.N,Row1*%
X108500000Y-112000000D02*
X108500000Y-108500000D01*
X108000000Y-111500000D02*
X107000000Y-112500000D01*
X107230000Y-107230000D02*
X107230000Y-105805000D01*
X104500000Y-108000000D02*
X107400000Y-108000000D01*
X107000000Y-109000000D02*
X107000000Y-111500000D01*
X101050000Y-105805000D02*
X103745000Y-108500000D01*
X108500000Y-108500000D02*
X107230000Y-107230000D01*
X106500000Y-108500000D02*
X107000000Y-109000000D01*
X107000000Y-111500000D02*
X106000000Y-112500000D01*
X108000000Y-112500000D02*
X108500000Y-112000000D01*
X108000000Y-108600000D02*
X108000000Y-111500000D01*
X104140000Y-105805000D02*
X104140000Y-107640000D01*
X103745000Y-108500000D02*
X106500000Y-108500000D01*
X104140000Y-107640000D02*
X104500000Y-108000000D01*
X107400000Y-108000000D02*
X108000000Y-108600000D01*
%TO.N,Row2*%
X109000000Y-108500000D02*
X110270000Y-107230000D01*
X113410000Y-107590000D02*
X113000000Y-108000000D01*
X109000000Y-112000000D02*
X109000000Y-108500000D01*
X113000000Y-108000000D02*
X109934315Y-108000000D01*
X111500000Y-112500000D02*
X110097500Y-111097500D01*
X110097500Y-111097500D02*
X110097500Y-108500000D01*
X113410000Y-105805000D02*
X113410000Y-107590000D01*
X110097500Y-108500000D02*
X113902500Y-108500000D01*
X109934315Y-108000000D02*
X109500000Y-108434315D01*
X113902500Y-108500000D02*
X116597500Y-105805000D01*
X109500000Y-111500000D02*
X109500000Y-108434315D01*
X109500000Y-112500000D02*
X109000000Y-112000000D01*
X110270000Y-107230000D02*
X110270000Y-105805000D01*
X110500000Y-112500000D02*
X109500000Y-111500000D01*
%TD*%
M02*
