M48
; DRILL file {KiCad 8.0.4-8.0.4-0~ubuntu22.04.1} date 2024-10-21T19:34:45-0400
; FORMAT={-:-/ absolute / inch / decimal}
; #@! TF.CreationDate,2024-10-21T19:34:45-04:00
; #@! TF.GenerationSoftware,Kicad,Pcbnew,8.0.4-8.0.4-0~ubuntu22.04.1
; #@! TF.FileFunction,Plated,1,2,PTH
FMAT,2
INCH
; #@! TA.AperFunction,Plated,PTH,ViaDrill
T1C0.0118
; #@! TA.AperFunction,Plated,PTH,ComponentDrill
T2C0.0197
; #@! TA.AperFunction,Plated,PTH,ComponentDrill
T3C0.0295
; #@! TA.AperFunction,Plated,PTH,ComponentDrill
T4C0.0394
; #@! TA.AperFunction,Plated,PTH,ComponentDrill
T5C0.0591
%
G90
G05
T1
X4.1732Y-4.4291
X4.1732Y-4.7835
X4.2126Y-4.4291
X4.252Y-4.4291
X4.311Y-4.4291
X4.3504Y-4.4291
X4.3898Y-4.4291
T2
X5.6496Y-2.9921
X5.6496Y-3.0315
X5.6496Y-3.0709
X5.6496Y-3.1102
T3
X3.9783Y-3.8659
X3.9783Y-4.1659
X4.1Y-3.8659
X4.1Y-4.1659
X4.2217Y-3.8659
X4.2217Y-4.1659
X4.3433Y-3.8659
X4.3433Y-4.1659
X4.465Y-3.8659
X4.465Y-4.1659
X4.5866Y-3.8659
X4.5866Y-4.1659
T4
X3.9961Y-2.8449
X3.9961Y-2.9449
X3.9961Y-3.0449
X3.9961Y-3.1449
X3.9961Y-3.2449
X3.9961Y-3.3449
X3.9961Y-3.4449
X4.5965Y-2.8449
X4.5965Y-2.9449
X4.5965Y-3.0449
X4.5965Y-3.1449
X4.5965Y-3.2449
X4.5965Y-3.3449
X4.5965Y-3.4449
T5
X5.1484Y-3.6205
X5.1484Y-4.3685
X5.3984Y-3.5205
X5.3984Y-4.2685
X5.8965Y-4.3685
X5.8996Y-3.6205
X6.1465Y-4.2685
X6.1496Y-3.5205
X6.6445Y-3.6205
X6.6445Y-4.3685
X6.8945Y-3.5205
X6.8945Y-4.2685
M30
