solid ASCII
  facet normal 0.000000e+00 9.914449e-01 1.305262e-01
    outer loop
      vertex   1.000000e+01 2.350281e+01 2.779883e+01
      vertex   5.000000e+00 2.350281e+01 2.779883e+01
      vertex   1.000000e+01 2.345000e+01 2.820000e+01
    endloop
  endfacet
  facet normal 0.000000e+00 9.914449e-01 1.305262e-01
    outer loop
      vertex   1.000000e+01 2.345000e+01 2.820000e+01
      vertex   5.000000e+00 2.350281e+01 2.779883e+01
      vertex   5.000000e+00 2.345000e+01 2.820000e+01
    endloop
  endfacet
  facet normal 0.000000e+00 9.914449e-01 -1.305262e-01
    outer loop
      vertex   1.000000e+01 2.345000e+01 2.820000e+01
      vertex   5.000000e+00 2.345000e+01 2.820000e+01
      vertex   1.000000e+01 2.350281e+01 2.860117e+01
    endloop
  endfacet
  facet normal 0.000000e+00 9.914449e-01 -1.305262e-01
    outer loop
      vertex   1.000000e+01 2.350281e+01 2.860117e+01
      vertex   5.000000e+00 2.345000e+01 2.820000e+01
      vertex   5.000000e+00 2.350281e+01 2.860117e+01
    endloop
  endfacet
  facet normal 0.000000e+00 9.238795e-01 -3.826834e-01
    outer loop
      vertex   1.000000e+01 2.350281e+01 2.860117e+01
      vertex   5.000000e+00 2.350281e+01 2.860117e+01
      vertex   1.000000e+01 2.365766e+01 2.897500e+01
    endloop
  endfacet
  facet normal 0.000000e+00 9.238795e-01 -3.826834e-01
    outer loop
      vertex   1.000000e+01 2.365766e+01 2.897500e+01
      vertex   5.000000e+00 2.350281e+01 2.860117e+01
      vertex   5.000000e+00 2.365766e+01 2.897500e+01
    endloop
  endfacet
  facet normal 0.000000e+00 7.933533e-01 -6.087614e-01
    outer loop
      vertex   1.000000e+01 2.365766e+01 2.897500e+01
      vertex   5.000000e+00 2.365766e+01 2.897500e+01
      vertex   1.000000e+01 2.390398e+01 2.929601e+01
    endloop
  endfacet
  facet normal 0.000000e+00 7.933533e-01 -6.087614e-01
    outer loop
      vertex   1.000000e+01 2.390398e+01 2.929601e+01
      vertex   5.000000e+00 2.365766e+01 2.897500e+01
      vertex   5.000000e+00 2.390398e+01 2.929601e+01
    endloop
  endfacet
  facet normal 0.000000e+00 6.087614e-01 -7.933533e-01
    outer loop
      vertex   1.000000e+01 2.390398e+01 2.929601e+01
      vertex   5.000000e+00 2.390398e+01 2.929601e+01
      vertex   1.000000e+01 2.422500e+01 2.954234e+01
    endloop
  endfacet
  facet normal 0.000000e+00 6.087614e-01 -7.933533e-01
    outer loop
      vertex   1.000000e+01 2.422500e+01 2.954234e+01
      vertex   5.000000e+00 2.390398e+01 2.929601e+01
      vertex   5.000000e+00 2.422500e+01 2.954234e+01
    endloop
  endfacet
  facet normal 0.000000e+00 3.826834e-01 -9.238795e-01
    outer loop
      vertex   1.000000e+01 2.422500e+01 2.954234e+01
      vertex   5.000000e+00 2.422500e+01 2.954234e+01
      vertex   1.000000e+01 2.459883e+01 2.969718e+01
    endloop
  endfacet
  facet normal 0.000000e+00 3.826834e-01 -9.238795e-01
    outer loop
      vertex   1.000000e+01 2.459883e+01 2.969718e+01
      vertex   5.000000e+00 2.422500e+01 2.954234e+01
      vertex   5.000000e+00 2.459883e+01 2.969718e+01
    endloop
  endfacet
  facet normal 0.000000e+00 1.305262e-01 -9.914449e-01
    outer loop
      vertex   1.000000e+01 2.459883e+01 2.969718e+01
      vertex   5.000000e+00 2.459883e+01 2.969718e+01
      vertex   1.000000e+01 2.500000e+01 2.975000e+01
    endloop
  endfacet
  facet normal 0.000000e+00 1.305262e-01 -9.914449e-01
    outer loop
      vertex   1.000000e+01 2.500000e+01 2.975000e+01
      vertex   5.000000e+00 2.459883e+01 2.969718e+01
      vertex   5.000000e+00 2.500000e+01 2.975000e+01
    endloop
  endfacet
  facet normal -0.000000e+00 -1.305262e-01 -9.914449e-01
    outer loop
      vertex   1.000000e+01 2.500000e+01 2.975000e+01
      vertex   5.000000e+00 2.500000e+01 2.975000e+01
      vertex   1.000000e+01 2.540117e+01 2.969718e+01
    endloop
  endfacet
  facet normal -0.000000e+00 -1.305262e-01 -9.914449e-01
    outer loop
      vertex   1.000000e+01 2.540117e+01 2.969718e+01
      vertex   5.000000e+00 2.500000e+01 2.975000e+01
      vertex   5.000000e+00 2.540117e+01 2.969718e+01
    endloop
  endfacet
  facet normal -0.000000e+00 -3.826834e-01 -9.238795e-01
    outer loop
      vertex   1.000000e+01 2.540117e+01 2.969718e+01
      vertex   5.000000e+00 2.540117e+01 2.969718e+01
      vertex   1.000000e+01 2.577500e+01 2.954234e+01
    endloop
  endfacet
  facet normal -0.000000e+00 -3.826834e-01 -9.238795e-01
    outer loop
      vertex   1.000000e+01 2.577500e+01 2.954234e+01
      vertex   5.000000e+00 2.540117e+01 2.969718e+01
      vertex   5.000000e+00 2.577500e+01 2.954234e+01
    endloop
  endfacet
  facet normal -0.000000e+00 -6.087614e-01 -7.933533e-01
    outer loop
      vertex   1.000000e+01 2.577500e+01 2.954234e+01
      vertex   5.000000e+00 2.577500e+01 2.954234e+01
      vertex   1.000000e+01 2.609601e+01 2.929601e+01
    endloop
  endfacet
  facet normal -0.000000e+00 -6.087614e-01 -7.933533e-01
    outer loop
      vertex   1.000000e+01 2.609601e+01 2.929601e+01
      vertex   5.000000e+00 2.577500e+01 2.954234e+01
      vertex   5.000000e+00 2.609601e+01 2.929601e+01
    endloop
  endfacet
  facet normal -0.000000e+00 -7.933533e-01 -6.087614e-01
    outer loop
      vertex   1.000000e+01 2.609601e+01 2.929601e+01
      vertex   5.000000e+00 2.609601e+01 2.929601e+01
      vertex   1.000000e+01 2.634234e+01 2.897500e+01
    endloop
  endfacet
  facet normal -0.000000e+00 -7.933533e-01 -6.087614e-01
    outer loop
      vertex   1.000000e+01 2.634234e+01 2.897500e+01
      vertex   5.000000e+00 2.609601e+01 2.929601e+01
      vertex   5.000000e+00 2.634234e+01 2.897500e+01
    endloop
  endfacet
  facet normal -0.000000e+00 -9.238795e-01 -3.826834e-01
    outer loop
      vertex   1.000000e+01 2.634234e+01 2.897500e+01
      vertex   5.000000e+00 2.634234e+01 2.897500e+01
      vertex   1.000000e+01 2.649718e+01 2.860117e+01
    endloop
  endfacet
  facet normal -0.000000e+00 -9.238795e-01 -3.826834e-01
    outer loop
      vertex   1.000000e+01 2.649718e+01 2.860117e+01
      vertex   5.000000e+00 2.634234e+01 2.897500e+01
      vertex   5.000000e+00 2.649718e+01 2.860117e+01
    endloop
  endfacet
  facet normal -0.000000e+00 -9.914449e-01 -1.305262e-01
    outer loop
      vertex   1.000000e+01 2.649718e+01 2.860117e+01
      vertex   5.000000e+00 2.649718e+01 2.860117e+01
      vertex   1.000000e+01 2.655000e+01 2.820000e+01
    endloop
  endfacet
  facet normal -0.000000e+00 -9.914449e-01 -1.305262e-01
    outer loop
      vertex   1.000000e+01 2.655000e+01 2.820000e+01
      vertex   5.000000e+00 2.649718e+01 2.860117e+01
      vertex   5.000000e+00 2.655000e+01 2.820000e+01
    endloop
  endfacet
  facet normal 0.000000e+00 -9.914449e-01 1.305262e-01
    outer loop
      vertex   1.000000e+01 2.655000e+01 2.820000e+01
      vertex   5.000000e+00 2.655000e+01 2.820000e+01
      vertex   1.000000e+01 2.649718e+01 2.779883e+01
    endloop
  endfacet
  facet normal 0.000000e+00 -9.914449e-01 1.305262e-01
    outer loop
      vertex   1.000000e+01 2.649718e+01 2.779883e+01
      vertex   5.000000e+00 2.655000e+01 2.820000e+01
      vertex   5.000000e+00 2.649718e+01 2.779883e+01
    endloop
  endfacet
  facet normal 0.000000e+00 -9.238795e-01 3.826834e-01
    outer loop
      vertex   1.000000e+01 2.649718e+01 2.779883e+01
      vertex   5.000000e+00 2.649718e+01 2.779883e+01
      vertex   1.000000e+01 2.634234e+01 2.742500e+01
    endloop
  endfacet
  facet normal 0.000000e+00 -9.238795e-01 3.826834e-01
    outer loop
      vertex   1.000000e+01 2.634234e+01 2.742500e+01
      vertex   5.000000e+00 2.649718e+01 2.779883e+01
      vertex   5.000000e+00 2.634234e+01 2.742500e+01
    endloop
  endfacet
  facet normal 0.000000e+00 -7.933533e-01 6.087614e-01
    outer loop
      vertex   1.000000e+01 2.634234e+01 2.742500e+01
      vertex   5.000000e+00 2.634234e+01 2.742500e+01
      vertex   1.000000e+01 2.609601e+01 2.710398e+01
    endloop
  endfacet
  facet normal 0.000000e+00 -7.933533e-01 6.087614e-01
    outer loop
      vertex   1.000000e+01 2.609601e+01 2.710398e+01
      vertex   5.000000e+00 2.634234e+01 2.742500e+01
      vertex   5.000000e+00 2.609601e+01 2.710398e+01
    endloop
  endfacet
  facet normal 0.000000e+00 -6.087614e-01 7.933533e-01
    outer loop
      vertex   1.000000e+01 2.609601e+01 2.710398e+01
      vertex   5.000000e+00 2.609601e+01 2.710398e+01
      vertex   1.000000e+01 2.577500e+01 2.685766e+01
    endloop
  endfacet
  facet normal 0.000000e+00 -6.087614e-01 7.933533e-01
    outer loop
      vertex   1.000000e+01 2.577500e+01 2.685766e+01
      vertex   5.000000e+00 2.609601e+01 2.710398e+01
      vertex   5.000000e+00 2.577500e+01 2.685766e+01
    endloop
  endfacet
  facet normal 0.000000e+00 -3.826834e-01 9.238795e-01
    outer loop
      vertex   1.000000e+01 2.577500e+01 2.685766e+01
      vertex   5.000000e+00 2.577500e+01 2.685766e+01
      vertex   1.000000e+01 2.540117e+01 2.670281e+01
    endloop
  endfacet
  facet normal 0.000000e+00 -3.826834e-01 9.238795e-01
    outer loop
      vertex   1.000000e+01 2.540117e+01 2.670281e+01
      vertex   5.000000e+00 2.577500e+01 2.685766e+01
      vertex   5.000000e+00 2.540117e+01 2.670281e+01
    endloop
  endfacet
  facet normal 0.000000e+00 -1.305262e-01 9.914449e-01
    outer loop
      vertex   1.000000e+01 2.540117e+01 2.670281e+01
      vertex   5.000000e+00 2.540117e+01 2.670281e+01
      vertex   1.000000e+01 2.500000e+01 2.665000e+01
    endloop
  endfacet
  facet normal 0.000000e+00 -1.305262e-01 9.914449e-01
    outer loop
      vertex   1.000000e+01 2.500000e+01 2.665000e+01
      vertex   5.000000e+00 2.540117e+01 2.670281e+01
      vertex   5.000000e+00 2.500000e+01 2.665000e+01
    endloop
  endfacet
  facet normal 0.000000e+00 1.305262e-01 9.914449e-01
    outer loop
      vertex   1.000000e+01 2.500000e+01 2.665000e+01
      vertex   5.000000e+00 2.500000e+01 2.665000e+01
      vertex   1.000000e+01 2.459883e+01 2.670281e+01
    endloop
  endfacet
  facet normal 0.000000e+00 1.305262e-01 9.914449e-01
    outer loop
      vertex   1.000000e+01 2.459883e+01 2.670281e+01
      vertex   5.000000e+00 2.500000e+01 2.665000e+01
      vertex   5.000000e+00 2.459883e+01 2.670281e+01
    endloop
  endfacet
  facet normal 0.000000e+00 3.826834e-01 9.238795e-01
    outer loop
      vertex   1.000000e+01 2.459883e+01 2.670281e+01
      vertex   5.000000e+00 2.459883e+01 2.670281e+01
      vertex   1.000000e+01 2.422500e+01 2.685766e+01
    endloop
  endfacet
  facet normal 0.000000e+00 3.826834e-01 9.238795e-01
    outer loop
      vertex   1.000000e+01 2.422500e+01 2.685766e+01
      vertex   5.000000e+00 2.459883e+01 2.670281e+01
      vertex   5.000000e+00 2.422500e+01 2.685766e+01
    endloop
  endfacet
  facet normal 0.000000e+00 6.087614e-01 7.933533e-01
    outer loop
      vertex   1.000000e+01 2.422500e+01 2.685766e+01
      vertex   5.000000e+00 2.422500e+01 2.685766e+01
      vertex   1.000000e+01 2.390398e+01 2.710398e+01
    endloop
  endfacet
  facet normal 0.000000e+00 6.087614e-01 7.933533e-01
    outer loop
      vertex   1.000000e+01 2.390398e+01 2.710398e+01
      vertex   5.000000e+00 2.422500e+01 2.685766e+01
      vertex   5.000000e+00 2.390398e+01 2.710398e+01
    endloop
  endfacet
  facet normal 0.000000e+00 7.933533e-01 6.087614e-01
    outer loop
      vertex   1.000000e+01 2.390398e+01 2.710398e+01
      vertex   5.000000e+00 2.390398e+01 2.710398e+01
      vertex   1.000000e+01 2.365766e+01 2.742500e+01
    endloop
  endfacet
  facet normal 0.000000e+00 7.933533e-01 6.087614e-01
    outer loop
      vertex   1.000000e+01 2.365766e+01 2.742500e+01
      vertex   5.000000e+00 2.390398e+01 2.710398e+01
      vertex   5.000000e+00 2.365766e+01 2.742500e+01
    endloop
  endfacet
  facet normal 0.000000e+00 9.238795e-01 3.826834e-01
    outer loop
      vertex   1.000000e+01 2.365766e+01 2.742500e+01
      vertex   5.000000e+00 2.365766e+01 2.742500e+01
      vertex   1.000000e+01 2.350281e+01 2.779883e+01
    endloop
  endfacet
  facet normal 0.000000e+00 9.238795e-01 3.826834e-01
    outer loop
      vertex   1.000000e+01 2.350281e+01 2.779883e+01
      vertex   5.000000e+00 2.365766e+01 2.742500e+01
      vertex   5.000000e+00 2.350281e+01 2.779883e+01
    endloop
  endfacet
  facet normal 0.000000e+00 9.914449e-01 -1.305262e-01
    outer loop
      vertex   0.000000e+00 2.350281e+01 2.860117e+01
      vertex   5.000000e+00 2.350281e+01 2.860117e+01
      vertex   0.000000e+00 2.345000e+01 2.820000e+01
    endloop
  endfacet
  facet normal 0.000000e+00 9.914449e-01 -1.305262e-01
    outer loop
      vertex   0.000000e+00 2.345000e+01 2.820000e+01
      vertex   5.000000e+00 2.350281e+01 2.860117e+01
      vertex   5.000000e+00 2.345000e+01 2.820000e+01
    endloop
  endfacet
  facet normal -0.000000e+00 9.914449e-01 1.305262e-01
    outer loop
      vertex   0.000000e+00 2.345000e+01 2.820000e+01
      vertex   5.000000e+00 2.345000e+01 2.820000e+01
      vertex   0.000000e+00 2.350281e+01 2.779883e+01
    endloop
  endfacet
  facet normal -0.000000e+00 9.914449e-01 1.305262e-01
    outer loop
      vertex   0.000000e+00 2.350281e+01 2.779883e+01
      vertex   5.000000e+00 2.345000e+01 2.820000e+01
      vertex   5.000000e+00 2.350281e+01 2.779883e+01
    endloop
  endfacet
  facet normal -0.000000e+00 9.238795e-01 3.826834e-01
    outer loop
      vertex   0.000000e+00 2.350281e+01 2.779883e+01
      vertex   5.000000e+00 2.350281e+01 2.779883e+01
      vertex   0.000000e+00 2.365766e+01 2.742500e+01
    endloop
  endfacet
  facet normal -0.000000e+00 9.238795e-01 3.826834e-01
    outer loop
      vertex   0.000000e+00 2.365766e+01 2.742500e+01
      vertex   5.000000e+00 2.350281e+01 2.779883e+01
      vertex   5.000000e+00 2.365766e+01 2.742500e+01
    endloop
  endfacet
  facet normal -0.000000e+00 7.933533e-01 6.087614e-01
    outer loop
      vertex   0.000000e+00 2.365766e+01 2.742500e+01
      vertex   5.000000e+00 2.365766e+01 2.742500e+01
      vertex   0.000000e+00 2.390398e+01 2.710398e+01
    endloop
  endfacet
  facet normal -0.000000e+00 7.933533e-01 6.087614e-01
    outer loop
      vertex   0.000000e+00 2.390398e+01 2.710398e+01
      vertex   5.000000e+00 2.365766e+01 2.742500e+01
      vertex   5.000000e+00 2.390398e+01 2.710398e+01
    endloop
  endfacet
  facet normal -0.000000e+00 6.087614e-01 7.933533e-01
    outer loop
      vertex   0.000000e+00 2.390398e+01 2.710398e+01
      vertex   5.000000e+00 2.390398e+01 2.710398e+01
      vertex   0.000000e+00 2.422500e+01 2.685766e+01
    endloop
  endfacet
  facet normal -0.000000e+00 6.087614e-01 7.933533e-01
    outer loop
      vertex   0.000000e+00 2.422500e+01 2.685766e+01
      vertex   5.000000e+00 2.390398e+01 2.710398e+01
      vertex   5.000000e+00 2.422500e+01 2.685766e+01
    endloop
  endfacet
  facet normal -0.000000e+00 3.826834e-01 9.238795e-01
    outer loop
      vertex   0.000000e+00 2.422500e+01 2.685766e+01
      vertex   5.000000e+00 2.422500e+01 2.685766e+01
      vertex   0.000000e+00 2.459883e+01 2.670281e+01
    endloop
  endfacet
  facet normal -0.000000e+00 3.826834e-01 9.238795e-01
    outer loop
      vertex   0.000000e+00 2.459883e+01 2.670281e+01
      vertex   5.000000e+00 2.422500e+01 2.685766e+01
      vertex   5.000000e+00 2.459883e+01 2.670281e+01
    endloop
  endfacet
  facet normal -0.000000e+00 1.305262e-01 9.914449e-01
    outer loop
      vertex   0.000000e+00 2.459883e+01 2.670281e+01
      vertex   5.000000e+00 2.459883e+01 2.670281e+01
      vertex   0.000000e+00 2.500000e+01 2.665000e+01
    endloop
  endfacet
  facet normal -0.000000e+00 1.305262e-01 9.914449e-01
    outer loop
      vertex   0.000000e+00 2.500000e+01 2.665000e+01
      vertex   5.000000e+00 2.459883e+01 2.670281e+01
      vertex   5.000000e+00 2.500000e+01 2.665000e+01
    endloop
  endfacet
  facet normal 0.000000e+00 -1.305262e-01 9.914449e-01
    outer loop
      vertex   0.000000e+00 2.500000e+01 2.665000e+01
      vertex   5.000000e+00 2.500000e+01 2.665000e+01
      vertex   0.000000e+00 2.540117e+01 2.670281e+01
    endloop
  endfacet
  facet normal 0.000000e+00 -1.305262e-01 9.914449e-01
    outer loop
      vertex   0.000000e+00 2.540117e+01 2.670281e+01
      vertex   5.000000e+00 2.500000e+01 2.665000e+01
      vertex   5.000000e+00 2.540117e+01 2.670281e+01
    endloop
  endfacet
  facet normal 0.000000e+00 -3.826834e-01 9.238795e-01
    outer loop
      vertex   0.000000e+00 2.540117e+01 2.670281e+01
      vertex   5.000000e+00 2.540117e+01 2.670281e+01
      vertex   0.000000e+00 2.577500e+01 2.685766e+01
    endloop
  endfacet
  facet normal 0.000000e+00 -3.826834e-01 9.238795e-01
    outer loop
      vertex   0.000000e+00 2.577500e+01 2.685766e+01
      vertex   5.000000e+00 2.540117e+01 2.670281e+01
      vertex   5.000000e+00 2.577500e+01 2.685766e+01
    endloop
  endfacet
  facet normal 0.000000e+00 -6.087614e-01 7.933533e-01
    outer loop
      vertex   0.000000e+00 2.577500e+01 2.685766e+01
      vertex   5.000000e+00 2.577500e+01 2.685766e+01
      vertex   0.000000e+00 2.609601e+01 2.710398e+01
    endloop
  endfacet
  facet normal 0.000000e+00 -6.087614e-01 7.933533e-01
    outer loop
      vertex   0.000000e+00 2.609601e+01 2.710398e+01
      vertex   5.000000e+00 2.577500e+01 2.685766e+01
      vertex   5.000000e+00 2.609601e+01 2.710398e+01
    endloop
  endfacet
  facet normal 0.000000e+00 -7.933533e-01 6.087614e-01
    outer loop
      vertex   0.000000e+00 2.609601e+01 2.710398e+01
      vertex   5.000000e+00 2.609601e+01 2.710398e+01
      vertex   0.000000e+00 2.634234e+01 2.742500e+01
    endloop
  endfacet
  facet normal 0.000000e+00 -7.933533e-01 6.087614e-01
    outer loop
      vertex   0.000000e+00 2.634234e+01 2.742500e+01
      vertex   5.000000e+00 2.609601e+01 2.710398e+01
      vertex   5.000000e+00 2.634234e+01 2.742500e+01
    endloop
  endfacet
  facet normal 0.000000e+00 -9.238795e-01 3.826834e-01
    outer loop
      vertex   0.000000e+00 2.634234e+01 2.742500e+01
      vertex   5.000000e+00 2.634234e+01 2.742500e+01
      vertex   0.000000e+00 2.649718e+01 2.779883e+01
    endloop
  endfacet
  facet normal 0.000000e+00 -9.238795e-01 3.826834e-01
    outer loop
      vertex   0.000000e+00 2.649718e+01 2.779883e+01
      vertex   5.000000e+00 2.634234e+01 2.742500e+01
      vertex   5.000000e+00 2.649718e+01 2.779883e+01
    endloop
  endfacet
  facet normal 0.000000e+00 -9.914449e-01 1.305262e-01
    outer loop
      vertex   0.000000e+00 2.649718e+01 2.779883e+01
      vertex   5.000000e+00 2.649718e+01 2.779883e+01
      vertex   0.000000e+00 2.655000e+01 2.820000e+01
    endloop
  endfacet
  facet normal 0.000000e+00 -9.914449e-01 1.305262e-01
    outer loop
      vertex   0.000000e+00 2.655000e+01 2.820000e+01
      vertex   5.000000e+00 2.649718e+01 2.779883e+01
      vertex   5.000000e+00 2.655000e+01 2.820000e+01
    endloop
  endfacet
  facet normal 0.000000e+00 -9.914449e-01 -1.305262e-01
    outer loop
      vertex   0.000000e+00 2.655000e+01 2.820000e+01
      vertex   5.000000e+00 2.655000e+01 2.820000e+01
      vertex   0.000000e+00 2.649718e+01 2.860117e+01
    endloop
  endfacet
  facet normal 0.000000e+00 -9.914449e-01 -1.305262e-01
    outer loop
      vertex   0.000000e+00 2.649718e+01 2.860117e+01
      vertex   5.000000e+00 2.655000e+01 2.820000e+01
      vertex   5.000000e+00 2.649718e+01 2.860117e+01
    endloop
  endfacet
  facet normal 0.000000e+00 -9.238795e-01 -3.826834e-01
    outer loop
      vertex   0.000000e+00 2.649718e+01 2.860117e+01
      vertex   5.000000e+00 2.649718e+01 2.860117e+01
      vertex   0.000000e+00 2.634234e+01 2.897500e+01
    endloop
  endfacet
  facet normal 0.000000e+00 -9.238795e-01 -3.826834e-01
    outer loop
      vertex   0.000000e+00 2.634234e+01 2.897500e+01
      vertex   5.000000e+00 2.649718e+01 2.860117e+01
      vertex   5.000000e+00 2.634234e+01 2.897500e+01
    endloop
  endfacet
  facet normal 0.000000e+00 -7.933533e-01 -6.087614e-01
    outer loop
      vertex   0.000000e+00 2.634234e+01 2.897500e+01
      vertex   5.000000e+00 2.634234e+01 2.897500e+01
      vertex   0.000000e+00 2.609601e+01 2.929601e+01
    endloop
  endfacet
  facet normal 0.000000e+00 -7.933533e-01 -6.087614e-01
    outer loop
      vertex   0.000000e+00 2.609601e+01 2.929601e+01
      vertex   5.000000e+00 2.634234e+01 2.897500e+01
      vertex   5.000000e+00 2.609601e+01 2.929601e+01
    endloop
  endfacet
  facet normal 0.000000e+00 -6.087614e-01 -7.933533e-01
    outer loop
      vertex   0.000000e+00 2.609601e+01 2.929601e+01
      vertex   5.000000e+00 2.609601e+01 2.929601e+01
      vertex   0.000000e+00 2.577500e+01 2.954234e+01
    endloop
  endfacet
  facet normal 0.000000e+00 -6.087614e-01 -7.933533e-01
    outer loop
      vertex   0.000000e+00 2.577500e+01 2.954234e+01
      vertex   5.000000e+00 2.609601e+01 2.929601e+01
      vertex   5.000000e+00 2.577500e+01 2.954234e+01
    endloop
  endfacet
  facet normal 0.000000e+00 -3.826834e-01 -9.238795e-01
    outer loop
      vertex   0.000000e+00 2.577500e+01 2.954234e+01
      vertex   5.000000e+00 2.577500e+01 2.954234e+01
      vertex   0.000000e+00 2.540117e+01 2.969718e+01
    endloop
  endfacet
  facet normal 0.000000e+00 -3.826834e-01 -9.238795e-01
    outer loop
      vertex   0.000000e+00 2.540117e+01 2.969718e+01
      vertex   5.000000e+00 2.577500e+01 2.954234e+01
      vertex   5.000000e+00 2.540117e+01 2.969718e+01
    endloop
  endfacet
  facet normal 0.000000e+00 -1.305262e-01 -9.914449e-01
    outer loop
      vertex   0.000000e+00 2.540117e+01 2.969718e+01
      vertex   5.000000e+00 2.540117e+01 2.969718e+01
      vertex   0.000000e+00 2.500000e+01 2.975000e+01
    endloop
  endfacet
  facet normal 0.000000e+00 -1.305262e-01 -9.914449e-01
    outer loop
      vertex   0.000000e+00 2.500000e+01 2.975000e+01
      vertex   5.000000e+00 2.540117e+01 2.969718e+01
      vertex   5.000000e+00 2.500000e+01 2.975000e+01
    endloop
  endfacet
  facet normal 0.000000e+00 1.305262e-01 -9.914449e-01
    outer loop
      vertex   0.000000e+00 2.500000e+01 2.975000e+01
      vertex   5.000000e+00 2.500000e+01 2.975000e+01
      vertex   0.000000e+00 2.459883e+01 2.969718e+01
    endloop
  endfacet
  facet normal 0.000000e+00 1.305262e-01 -9.914449e-01
    outer loop
      vertex   0.000000e+00 2.459883e+01 2.969718e+01
      vertex   5.000000e+00 2.500000e+01 2.975000e+01
      vertex   5.000000e+00 2.459883e+01 2.969718e+01
    endloop
  endfacet
  facet normal 0.000000e+00 3.826834e-01 -9.238795e-01
    outer loop
      vertex   0.000000e+00 2.459883e+01 2.969718e+01
      vertex   5.000000e+00 2.459883e+01 2.969718e+01
      vertex   0.000000e+00 2.422500e+01 2.954234e+01
    endloop
  endfacet
  facet normal 0.000000e+00 3.826834e-01 -9.238795e-01
    outer loop
      vertex   0.000000e+00 2.422500e+01 2.954234e+01
      vertex   5.000000e+00 2.459883e+01 2.969718e+01
      vertex   5.000000e+00 2.422500e+01 2.954234e+01
    endloop
  endfacet
  facet normal 0.000000e+00 6.087614e-01 -7.933533e-01
    outer loop
      vertex   0.000000e+00 2.422500e+01 2.954234e+01
      vertex   5.000000e+00 2.422500e+01 2.954234e+01
      vertex   0.000000e+00 2.390398e+01 2.929601e+01
    endloop
  endfacet
  facet normal 0.000000e+00 6.087614e-01 -7.933533e-01
    outer loop
      vertex   0.000000e+00 2.390398e+01 2.929601e+01
      vertex   5.000000e+00 2.422500e+01 2.954234e+01
      vertex   5.000000e+00 2.390398e+01 2.929601e+01
    endloop
  endfacet
  facet normal 0.000000e+00 7.933533e-01 -6.087614e-01
    outer loop
      vertex   0.000000e+00 2.390398e+01 2.929601e+01
      vertex   5.000000e+00 2.390398e+01 2.929601e+01
      vertex   0.000000e+00 2.365766e+01 2.897500e+01
    endloop
  endfacet
  facet normal 0.000000e+00 7.933533e-01 -6.087614e-01
    outer loop
      vertex   0.000000e+00 2.365766e+01 2.897500e+01
      vertex   5.000000e+00 2.390398e+01 2.929601e+01
      vertex   5.000000e+00 2.365766e+01 2.897500e+01
    endloop
  endfacet
  facet normal 0.000000e+00 9.238795e-01 -3.826834e-01
    outer loop
      vertex   0.000000e+00 2.365766e+01 2.897500e+01
      vertex   5.000000e+00 2.365766e+01 2.897500e+01
      vertex   0.000000e+00 2.350281e+01 2.860117e+01
    endloop
  endfacet
  facet normal 0.000000e+00 9.238795e-01 -3.826834e-01
    outer loop
      vertex   0.000000e+00 2.350281e+01 2.860117e+01
      vertex   5.000000e+00 2.365766e+01 2.897500e+01
      vertex   5.000000e+00 2.350281e+01 2.860117e+01
    endloop
  endfacet
  facet normal -0.000000e+00 0.000000e+00 1.000000e+00
    outer loop
      vertex   0.000000e+00 8.700000e+01 5.600000e+01
      vertex   0.000000e+00 0.000000e+00 5.600000e+01
      vertex   1.000000e+01 8.700000e+01 5.600000e+01
    endloop
  endfacet
  facet normal 0.000000e+00 0.000000e+00 1.000000e+00
    outer loop
      vertex   1.000000e+01 8.700000e+01 5.600000e+01
      vertex   0.000000e+00 0.000000e+00 5.600000e+01
      vertex   1.000000e+01 0.000000e+00 5.600000e+01
    endloop
  endfacet
  facet normal 0.000000e+00 1.000000e+00 0.000000e+00
    outer loop
      vertex   0.000000e+00 8.700000e+01 0.000000e+00
      vertex   0.000000e+00 8.700000e+01 5.600000e+01
      vertex   1.000000e+01 8.700000e+01 0.000000e+00
    endloop
  endfacet
  facet normal 0.000000e+00 1.000000e+00 -0.000000e+00
    outer loop
      vertex   1.000000e+01 8.700000e+01 0.000000e+00
      vertex   0.000000e+00 8.700000e+01 5.600000e+01
      vertex   1.000000e+01 8.700000e+01 5.600000e+01
    endloop
  endfacet
  facet normal 0.000000e+00 0.000000e+00 -1.000000e+00
    outer loop
      vertex   0.000000e+00 0.000000e+00 0.000000e+00
      vertex   0.000000e+00 8.700000e+01 0.000000e+00
      vertex   1.000000e+01 0.000000e+00 0.000000e+00
    endloop
  endfacet
  facet normal 0.000000e+00 0.000000e+00 -1.000000e+00
    outer loop
      vertex   1.000000e+01 0.000000e+00 0.000000e+00
      vertex   0.000000e+00 8.700000e+01 0.000000e+00
      vertex   1.000000e+01 8.700000e+01 0.000000e+00
    endloop
  endfacet
  facet normal 0.000000e+00 -1.000000e+00 0.000000e+00
    outer loop
      vertex   0.000000e+00 0.000000e+00 5.600000e+01
      vertex   0.000000e+00 0.000000e+00 0.000000e+00
      vertex   1.000000e+01 0.000000e+00 5.600000e+01
    endloop
  endfacet
  facet normal 0.000000e+00 -1.000000e+00 -0.000000e+00
    outer loop
      vertex   1.000000e+01 0.000000e+00 5.600000e+01
      vertex   0.000000e+00 0.000000e+00 0.000000e+00
      vertex   1.000000e+01 0.000000e+00 0.000000e+00
    endloop
  endfacet
  facet normal 1.000000e+00 0.000000e+00 0.000000e+00
    outer loop
      vertex   1.000000e+01 2.350281e+01 2.860117e+01
      vertex   1.000000e+01 0.000000e+00 5.600000e+01
      vertex   1.000000e+01 2.345000e+01 2.820000e+01
    endloop
  endfacet
  facet normal 1.000000e+00 0.000000e+00 0.000000e+00
    outer loop
      vertex   1.000000e+01 2.345000e+01 2.820000e+01
      vertex   1.000000e+01 0.000000e+00 5.600000e+01
      vertex   1.000000e+01 0.000000e+00 0.000000e+00
    endloop
  endfacet
  facet normal 1.000000e+00 0.000000e+00 0.000000e+00
    outer loop
      vertex   1.000000e+01 2.345000e+01 2.820000e+01
      vertex   1.000000e+01 0.000000e+00 0.000000e+00
      vertex   1.000000e+01 2.350281e+01 2.779883e+01
    endloop
  endfacet
  facet normal 1.000000e+00 0.000000e+00 0.000000e+00
    outer loop
      vertex   1.000000e+01 2.350281e+01 2.779883e+01
      vertex   1.000000e+01 0.000000e+00 0.000000e+00
      vertex   1.000000e+01 2.365766e+01 2.742500e+01
    endloop
  endfacet
  facet normal 1.000000e+00 0.000000e+00 0.000000e+00
    outer loop
      vertex   1.000000e+01 2.365766e+01 2.742500e+01
      vertex   1.000000e+01 0.000000e+00 0.000000e+00
      vertex   1.000000e+01 2.390398e+01 2.710398e+01
    endloop
  endfacet
  facet normal 1.000000e+00 0.000000e+00 0.000000e+00
    outer loop
      vertex   1.000000e+01 2.390398e+01 2.710398e+01
      vertex   1.000000e+01 0.000000e+00 0.000000e+00
      vertex   1.000000e+01 2.422500e+01 2.685766e+01
    endloop
  endfacet
  facet normal 1.000000e+00 0.000000e+00 0.000000e+00
    outer loop
      vertex   1.000000e+01 2.422500e+01 2.685766e+01
      vertex   1.000000e+01 0.000000e+00 0.000000e+00
      vertex   1.000000e+01 2.459883e+01 2.670281e+01
    endloop
  endfacet
  facet normal 1.000000e+00 0.000000e+00 0.000000e+00
    outer loop
      vertex   1.000000e+01 2.459883e+01 2.670281e+01
      vertex   1.000000e+01 0.000000e+00 0.000000e+00
      vertex   1.000000e+01 2.500000e+01 2.665000e+01
    endloop
  endfacet
  facet normal 1.000000e+00 -0.000000e+00 0.000000e+00
    outer loop
      vertex   1.000000e+01 2.500000e+01 2.665000e+01
      vertex   1.000000e+01 0.000000e+00 0.000000e+00
      vertex   1.000000e+01 2.540117e+01 2.670281e+01
    endloop
  endfacet
  facet normal 1.000000e+00 0.000000e+00 0.000000e+00
    outer loop
      vertex   1.000000e+01 2.540117e+01 2.670281e+01
      vertex   1.000000e+01 0.000000e+00 0.000000e+00
      vertex   1.000000e+01 8.700000e+01 0.000000e+00
    endloop
  endfacet
  facet normal 1.000000e+00 -0.000000e+00 0.000000e+00
    outer loop
      vertex   1.000000e+01 2.540117e+01 2.670281e+01
      vertex   1.000000e+01 8.700000e+01 0.000000e+00
      vertex   1.000000e+01 2.577500e+01 2.685766e+01
    endloop
  endfacet
  facet normal 1.000000e+00 -0.000000e+00 0.000000e+00
    outer loop
      vertex   1.000000e+01 2.577500e+01 2.685766e+01
      vertex   1.000000e+01 8.700000e+01 0.000000e+00
      vertex   1.000000e+01 2.609601e+01 2.710398e+01
    endloop
  endfacet
  facet normal 1.000000e+00 -0.000000e+00 0.000000e+00
    outer loop
      vertex   1.000000e+01 2.609601e+01 2.710398e+01
      vertex   1.000000e+01 8.700000e+01 0.000000e+00
      vertex   1.000000e+01 2.634234e+01 2.742500e+01
    endloop
  endfacet
  facet normal 1.000000e+00 -0.000000e+00 0.000000e+00
    outer loop
      vertex   1.000000e+01 2.634234e+01 2.742500e+01
      vertex   1.000000e+01 8.700000e+01 0.000000e+00
      vertex   1.000000e+01 2.649718e+01 2.779883e+01
    endloop
  endfacet
  facet normal 1.000000e+00 -0.000000e+00 0.000000e+00
    outer loop
      vertex   1.000000e+01 2.649718e+01 2.779883e+01
      vertex   1.000000e+01 8.700000e+01 0.000000e+00
      vertex   1.000000e+01 2.655000e+01 2.820000e+01
    endloop
  endfacet
  facet normal 1.000000e+00 -0.000000e+00 0.000000e+00
    outer loop
      vertex   1.000000e+01 2.655000e+01 2.820000e+01
      vertex   1.000000e+01 8.700000e+01 0.000000e+00
      vertex   1.000000e+01 8.700000e+01 5.600000e+01
    endloop
  endfacet
  facet normal 1.000000e+00 0.000000e+00 -0.000000e+00
    outer loop
      vertex   1.000000e+01 2.655000e+01 2.820000e+01
      vertex   1.000000e+01 8.700000e+01 5.600000e+01
      vertex   1.000000e+01 2.649718e+01 2.860117e+01
    endloop
  endfacet
  facet normal 1.000000e+00 0.000000e+00 -0.000000e+00
    outer loop
      vertex   1.000000e+01 2.649718e+01 2.860117e+01
      vertex   1.000000e+01 8.700000e+01 5.600000e+01
      vertex   1.000000e+01 2.634234e+01 2.897500e+01
    endloop
  endfacet
  facet normal 1.000000e+00 0.000000e+00 -0.000000e+00
    outer loop
      vertex   1.000000e+01 2.634234e+01 2.897500e+01
      vertex   1.000000e+01 8.700000e+01 5.600000e+01
      vertex   1.000000e+01 2.609601e+01 2.929601e+01
    endloop
  endfacet
  facet normal 1.000000e+00 0.000000e+00 -0.000000e+00
    outer loop
      vertex   1.000000e+01 2.609601e+01 2.929601e+01
      vertex   1.000000e+01 8.700000e+01 5.600000e+01
      vertex   1.000000e+01 2.577500e+01 2.954234e+01
    endloop
  endfacet
  facet normal 1.000000e+00 0.000000e+00 -0.000000e+00
    outer loop
      vertex   1.000000e+01 2.577500e+01 2.954234e+01
      vertex   1.000000e+01 8.700000e+01 5.600000e+01
      vertex   1.000000e+01 2.540117e+01 2.969718e+01
    endloop
  endfacet
  facet normal 1.000000e+00 0.000000e+00 -0.000000e+00
    outer loop
      vertex   1.000000e+01 2.540117e+01 2.969718e+01
      vertex   1.000000e+01 8.700000e+01 5.600000e+01
      vertex   1.000000e+01 0.000000e+00 5.600000e+01
    endloop
  endfacet
  facet normal 1.000000e+00 0.000000e+00 0.000000e+00
    outer loop
      vertex   1.000000e+01 2.540117e+01 2.969718e+01
      vertex   1.000000e+01 0.000000e+00 5.600000e+01
      vertex   1.000000e+01 2.500000e+01 2.975000e+01
    endloop
  endfacet
  facet normal 1.000000e+00 0.000000e+00 0.000000e+00
    outer loop
      vertex   1.000000e+01 2.500000e+01 2.975000e+01
      vertex   1.000000e+01 0.000000e+00 5.600000e+01
      vertex   1.000000e+01 2.459883e+01 2.969718e+01
    endloop
  endfacet
  facet normal 1.000000e+00 0.000000e+00 0.000000e+00
    outer loop
      vertex   1.000000e+01 2.459883e+01 2.969718e+01
      vertex   1.000000e+01 0.000000e+00 5.600000e+01
      vertex   1.000000e+01 2.422500e+01 2.954234e+01
    endloop
  endfacet
  facet normal 1.000000e+00 0.000000e+00 0.000000e+00
    outer loop
      vertex   1.000000e+01 2.422500e+01 2.954234e+01
      vertex   1.000000e+01 0.000000e+00 5.600000e+01
      vertex   1.000000e+01 2.390398e+01 2.929601e+01
    endloop
  endfacet
  facet normal 1.000000e+00 0.000000e+00 0.000000e+00
    outer loop
      vertex   1.000000e+01 2.390398e+01 2.929601e+01
      vertex   1.000000e+01 0.000000e+00 5.600000e+01
      vertex   1.000000e+01 2.365766e+01 2.897500e+01
    endloop
  endfacet
  facet normal 1.000000e+00 0.000000e+00 0.000000e+00
    outer loop
      vertex   1.000000e+01 2.365766e+01 2.897500e+01
      vertex   1.000000e+01 0.000000e+00 5.600000e+01
      vertex   1.000000e+01 2.350281e+01 2.860117e+01
    endloop
  endfacet
  facet normal -1.000000e+00 -0.000000e+00 0.000000e+00
    outer loop
      vertex   0.000000e+00 2.350281e+01 2.779883e+01
      vertex   0.000000e+00 0.000000e+00 0.000000e+00
      vertex   0.000000e+00 2.345000e+01 2.820000e+01
    endloop
  endfacet
  facet normal -1.000000e+00 -0.000000e+00 0.000000e+00
    outer loop
      vertex   0.000000e+00 2.345000e+01 2.820000e+01
      vertex   0.000000e+00 0.000000e+00 0.000000e+00
      vertex   0.000000e+00 0.000000e+00 5.600000e+01
    endloop
  endfacet
  facet normal -1.000000e+00 0.000000e+00 0.000000e+00
    outer loop
      vertex   0.000000e+00 2.345000e+01 2.820000e+01
      vertex   0.000000e+00 0.000000e+00 5.600000e+01
      vertex   0.000000e+00 2.350281e+01 2.860117e+01
    endloop
  endfacet
  facet normal -1.000000e+00 0.000000e+00 0.000000e+00
    outer loop
      vertex   0.000000e+00 2.350281e+01 2.860117e+01
      vertex   0.000000e+00 0.000000e+00 5.600000e+01
      vertex   0.000000e+00 2.365766e+01 2.897500e+01
    endloop
  endfacet
  facet normal -1.000000e+00 0.000000e+00 0.000000e+00
    outer loop
      vertex   0.000000e+00 2.365766e+01 2.897500e+01
      vertex   0.000000e+00 0.000000e+00 5.600000e+01
      vertex   0.000000e+00 2.390398e+01 2.929601e+01
    endloop
  endfacet
  facet normal -1.000000e+00 0.000000e+00 0.000000e+00
    outer loop
      vertex   0.000000e+00 2.390398e+01 2.929601e+01
      vertex   0.000000e+00 0.000000e+00 5.600000e+01
      vertex   0.000000e+00 2.422500e+01 2.954234e+01
    endloop
  endfacet
  facet normal -1.000000e+00 0.000000e+00 0.000000e+00
    outer loop
      vertex   0.000000e+00 2.422500e+01 2.954234e+01
      vertex   0.000000e+00 0.000000e+00 5.600000e+01
      vertex   0.000000e+00 2.459883e+01 2.969718e+01
    endloop
  endfacet
  facet normal -1.000000e+00 0.000000e+00 0.000000e+00
    outer loop
      vertex   0.000000e+00 2.459883e+01 2.969718e+01
      vertex   0.000000e+00 0.000000e+00 5.600000e+01
      vertex   0.000000e+00 2.500000e+01 2.975000e+01
    endloop
  endfacet
  facet normal -1.000000e+00 0.000000e+00 0.000000e+00
    outer loop
      vertex   0.000000e+00 2.500000e+01 2.975000e+01
      vertex   0.000000e+00 0.000000e+00 5.600000e+01
      vertex   0.000000e+00 2.540117e+01 2.969718e+01
    endloop
  endfacet
  facet normal -1.000000e+00 0.000000e+00 0.000000e+00
    outer loop
      vertex   0.000000e+00 2.540117e+01 2.969718e+01
      vertex   0.000000e+00 0.000000e+00 5.600000e+01
      vertex   0.000000e+00 8.700000e+01 5.600000e+01
    endloop
  endfacet
  facet normal -1.000000e+00 0.000000e+00 0.000000e+00
    outer loop
      vertex   0.000000e+00 2.540117e+01 2.969718e+01
      vertex   0.000000e+00 8.700000e+01 5.600000e+01
      vertex   0.000000e+00 2.577500e+01 2.954234e+01
    endloop
  endfacet
  facet normal -1.000000e+00 0.000000e+00 0.000000e+00
    outer loop
      vertex   0.000000e+00 2.577500e+01 2.954234e+01
      vertex   0.000000e+00 8.700000e+01 5.600000e+01
      vertex   0.000000e+00 2.609601e+01 2.929601e+01
    endloop
  endfacet
  facet normal -1.000000e+00 0.000000e+00 0.000000e+00
    outer loop
      vertex   0.000000e+00 2.609601e+01 2.929601e+01
      vertex   0.000000e+00 8.700000e+01 5.600000e+01
      vertex   0.000000e+00 2.634234e+01 2.897500e+01
    endloop
  endfacet
  facet normal -1.000000e+00 0.000000e+00 0.000000e+00
    outer loop
      vertex   0.000000e+00 2.634234e+01 2.897500e+01
      vertex   0.000000e+00 8.700000e+01 5.600000e+01
      vertex   0.000000e+00 2.649718e+01 2.860117e+01
    endloop
  endfacet
  facet normal -1.000000e+00 0.000000e+00 0.000000e+00
    outer loop
      vertex   0.000000e+00 2.649718e+01 2.860117e+01
      vertex   0.000000e+00 8.700000e+01 5.600000e+01
      vertex   0.000000e+00 2.655000e+01 2.820000e+01
    endloop
  endfacet
  facet normal -1.000000e+00 0.000000e+00 0.000000e+00
    outer loop
      vertex   0.000000e+00 2.655000e+01 2.820000e+01
      vertex   0.000000e+00 8.700000e+01 5.600000e+01
      vertex   0.000000e+00 8.700000e+01 0.000000e+00
    endloop
  endfacet
  facet normal -1.000000e+00 0.000000e+00 -0.000000e+00
    outer loop
      vertex   0.000000e+00 2.655000e+01 2.820000e+01
      vertex   0.000000e+00 8.700000e+01 0.000000e+00
      vertex   0.000000e+00 2.649718e+01 2.779883e+01
    endloop
  endfacet
  facet normal -1.000000e+00 0.000000e+00 -0.000000e+00
    outer loop
      vertex   0.000000e+00 2.649718e+01 2.779883e+01
      vertex   0.000000e+00 8.700000e+01 0.000000e+00
      vertex   0.000000e+00 2.634234e+01 2.742500e+01
    endloop
  endfacet
  facet normal -1.000000e+00 0.000000e+00 -0.000000e+00
    outer loop
      vertex   0.000000e+00 2.634234e+01 2.742500e+01
      vertex   0.000000e+00 8.700000e+01 0.000000e+00
      vertex   0.000000e+00 2.609601e+01 2.710398e+01
    endloop
  endfacet
  facet normal -1.000000e+00 0.000000e+00 -0.000000e+00
    outer loop
      vertex   0.000000e+00 2.609601e+01 2.710398e+01
      vertex   0.000000e+00 8.700000e+01 0.000000e+00
      vertex   0.000000e+00 2.577500e+01 2.685766e+01
    endloop
  endfacet
  facet normal -1.000000e+00 0.000000e+00 -0.000000e+00
    outer loop
      vertex   0.000000e+00 2.577500e+01 2.685766e+01
      vertex   0.000000e+00 8.700000e+01 0.000000e+00
      vertex   0.000000e+00 2.540117e+01 2.670281e+01
    endloop
  endfacet
  facet normal -1.000000e+00 0.000000e+00 -0.000000e+00
    outer loop
      vertex   0.000000e+00 2.540117e+01 2.670281e+01
      vertex   0.000000e+00 8.700000e+01 0.000000e+00
      vertex   0.000000e+00 0.000000e+00 0.000000e+00
    endloop
  endfacet
  facet normal -1.000000e+00 0.000000e+00 0.000000e+00
    outer loop
      vertex   0.000000e+00 2.540117e+01 2.670281e+01
      vertex   0.000000e+00 0.000000e+00 0.000000e+00
      vertex   0.000000e+00 2.500000e+01 2.665000e+01
    endloop
  endfacet
  facet normal -1.000000e+00 -0.000000e+00 0.000000e+00
    outer loop
      vertex   0.000000e+00 2.500000e+01 2.665000e+01
      vertex   0.000000e+00 0.000000e+00 0.000000e+00
      vertex   0.000000e+00 2.459883e+01 2.670281e+01
    endloop
  endfacet
  facet normal -1.000000e+00 -0.000000e+00 0.000000e+00
    outer loop
      vertex   0.000000e+00 2.459883e+01 2.670281e+01
      vertex   0.000000e+00 0.000000e+00 0.000000e+00
      vertex   0.000000e+00 2.422500e+01 2.685766e+01
    endloop
  endfacet
  facet normal -1.000000e+00 -0.000000e+00 0.000000e+00
    outer loop
      vertex   0.000000e+00 2.422500e+01 2.685766e+01
      vertex   0.000000e+00 0.000000e+00 0.000000e+00
      vertex   0.000000e+00 2.390398e+01 2.710398e+01
    endloop
  endfacet
  facet normal -1.000000e+00 -0.000000e+00 0.000000e+00
    outer loop
      vertex   0.000000e+00 2.390398e+01 2.710398e+01
      vertex   0.000000e+00 0.000000e+00 0.000000e+00
      vertex   0.000000e+00 2.365766e+01 2.742500e+01
    endloop
  endfacet
  facet normal -1.000000e+00 -0.000000e+00 0.000000e+00
    outer loop
      vertex   0.000000e+00 2.365766e+01 2.742500e+01
      vertex   0.000000e+00 0.000000e+00 0.000000e+00
      vertex   0.000000e+00 2.350281e+01 2.779883e+01
    endloop
  endfacet
endsolid
